PathFileType	4	(X/Y/Z)	D:\Share\Shared_Data\Ergonomics\Sit To Stand Pertubation\S2\Unperturbed.trc
DataRate	CameraRate	NumFrames	NumMarkers	Units	OrigDataRate	OrigDataStartFrame	OrigNumFrames	
100	100	19	18	m	100	2806	261
Frame#	Time	R_Toe			R_ASIS			R_Pelvis			V_Sacral			L_Pelvis			L_ASIS			Clavical			R_Acromium			L_Acromium			Sternum			Torso			R_Thigh_Med			R_Thigh_Lat			R_Thigh			R_Shank_Med			R_Shank_Lat			R_Shank			R_Heel			
		X1	Y1	Z1	X2	Y2	Z2	X3	Y3	Z3	X4	Y4	Z4	X5	Y5	Z5	X6	Y6	Z6	X7	Y7	Z7	X8	Y8	Z8	X9	Y9	Z9	X10	Y10	Z10	X11	Y11	Z11	X12	Y12	Z12	X13	Y13	Z13	X14	Y14	Z14	X15	Y15	Z15	X16	Y16	Z16	X17	Y17	Z17	X18	Y18	Z18	

2806	28.05	0.44117975	0.064655426	0.14547818	0.42261722	1.0301921	0.14240871	0.34624429	1.0337634	0.18474199	0.20410469	1.0439652	0.024467236	0.30182202	1.0442263	-0.15577286	0.39876242	1.047265	-0.13064114	0.44411432	1.4594578	0.0044249005	0.35529749	1.4826692	0.2156315	0.32550726	1.4973315	-0.17380309	0.48729999	1.2999386	-0.0053617058	0.44445132	1.4223881	-0.11297228	0.35575739	0.49371222	0.090429665	0.34596619	0.51875995	0.17999059	0.43176855	0.68178204	0.15858932	0.30609445	0.1062337	0.10721375	0.28495804	0.10206042	0.1985585	0.31344037	0.37406787	0.21293855	0.20448839	0.061417431	0.15366045
2807	28.06	0.44121231	0.064637321	0.14545741	0.42471118	1.0301902	0.14207314	0.34827411	1.0335216	0.18444554	0.20620456	1.0431212	0.024041004	0.30382053	1.0437103	-0.15627019	0.40075681	1.0470428	-0.13105731	0.44354578	1.4597086	0.0036311455	0.35458337	1.4827241	0.21487761	0.32448495	1.4968296	-0.17447836	0.48753241	1.3003716	-0.0060373259	0.44394263	1.4224542	-0.11375063	0.35532471	0.49363394	0.090150032	0.34562738	0.51879865	0.17962296	0.43258719	0.68139166	0.15803012	0.30618591	0.10619313	0.10708608	0.28496191	0.10213151	0.19843866	0.31300281	0.37416364	0.21277213	0.20453209	0.061480679	0.15359427
2808	28.07	0.44125024	0.064614342	0.14543256	0.42678214	1.03016	0.1417466	0.35030417	1.0332682	0.18414964	0.20830293	1.0422451	0.023627756	0.30580438	1.0431647	-0.15677333	0.40272958	1.0467725	-0.13145934	0.44299527	1.4598778	0.0028751342	0.35387509	1.4827255	0.21415146	0.32352682	1.4962546	-0.17512592	0.48775217	1.3007233	-0.0066575313	0.44346106	1.4224288	-0.11448495	0.3549563	0.49356424	0.089882256	0.34535562	0.51882849	0.17927428	0.43347186	0.68101685	0.15748528	0.30626889	0.10614293	0.10695068	0.28497638	0.10220199	0.19831595	0.31262167	0.37424933	0.21262219	0.20457893	0.061545891	0.15352179
2809	28.08	0.44129276	0.064586708	0.14540392	0.42883228	1.0301039	0.14142177	0.3523512	1.033006	0.18385269	0.21039879	1.041344	0.023231234	0.30776886	1.042593	-0.15728325	0.40467426	1.0464583	-0.13185321	0.44246213	1.4599702	0.0021570063	0.35317438	1.4826718	0.21345576	0.32262811	1.4956128	-0.17574602	0.4879585	1.3009974	-0.0072268295	0.44300613	1.4223198	-0.11517766	0.35463623	0.49350775	0.089624184	0.34514694	0.51885333	0.17894402	0.43441061	0.68065704	0.1569453	0.30634302	0.10608746	0.10681258	0.28500031	0.10227023	0.1981929	0.31229547	0.37432874	0.21249081	0.20462759	0.061612389	0.15344469
2810	28.09	0.44133856	0.064555061	0.14537279	0.43086185	1.0300254	0.14109319	0.35442096	1.0327367	0.18355287	0.2124866	1.040424	0.022852188	0.30970905	1.0419974	-0.15779803	0.40658484	1.0461046	-0.13224287	0.44194617	1.459991	0.0014755831	0.35248364	1.4825601	0.21279092	0.32178253	1.4949105	-0.17634088	0.48815359	1.3011989	-0.0077516193	0.44257626	1.4221357	-0.11583313	0.35435165	0.4934682	0.08937854	0.34499594	0.51887689	0.17863432	0.43538693	0.68031262	0.15640314	0.30641052	0.10603163	0.10667689	0.28503091	0.10233445	0.19807182	0.31202075	0.37440625	0.21238045	0.2046768	0.061678757	0.15336505
2811	28.1	0.4413862	0.064520149	0.14534149	0.43286923	1.0299272	0.14075813	0.35650565	1.0324609	0.18324866	0.21455658	1.039489	0.02248815	0.31161935	1.0413807	-0.15831427	0.40845663	1.0457163	-0.1326302	0.44144843	1.4599459	0.00082829785	0.35180548	1.4823879	0.2121554	0.32098376	1.4941543	-0.17691267	0.48834262	1.3013323	-0.0082398777	0.44216904	1.4218861	-0.11645643	0.35409488	0.49344815	0.089151428	0.34489679	0.51890289	0.17834901	0.43638284	0.67998541	0.15585596	0.30647418	0.10597941	0.10654778	0.28506497	0.102393	0.19795465	0.31179279	0.37448621	0.21229242	0.20472585	0.061743324	0.15328528
2812	28.11	0.44143423	0.064482597	0.14531247	0.43485001	1.0298129	0.14041692	0.35858548	1.032179	0.1829393	0.21659583	1.0385411	0.022133469	0.31349286	1.0407451	-0.15882791	0.41028625	1.0452981	-0.13301514	0.44097058	1.4598403	0.00021123838	0.35114328	1.4821528	0.21154536	0.32022693	1.493351	-0.17746324	0.4885318	1.3014034	-0.0087004347	0.44178198	1.4215806	-0.11705209	0.35386249	0.49344772	0.088949486	0.34484418	0.51893323	0.17809187	0.43738147	0.67967603	0.15530573	0.30653656	0.10593298	0.10642785	0.2850997	0.10244453	0.19784286	0.31160635	0.37457104	0.21222581	0.2047742	0.061805008	0.1532077
2813	28.12	0.44148138	0.064442856	0.14528778	0.4367977	1.0296841	0.14007219	0.3606348	1.0318896	0.18262567	0.21859169	1.0375813	0.021782448	0.31531967	1.0400923	-0.15933475	0.41206998	1.0448558	-0.1333961	0.44051489	1.4596794	-0.00038044986	0.35050085	1.4818529	0.21095512	0.31950873	1.4925081	-0.17799524	0.48872644	1.3014185	-0.0091420336	0.44141357	1.4212278	-0.11762381	0.35365109	0.49346283	0.088777214	0.34483368	0.51896771	0.17786485	0.43836954	0.67938373	0.15475879	0.30659964	0.10589288	0.1063178	0.28513358	0.10248827	0.19773726	0.31145645	0.3746608	0.21217767	0.2048217	0.061863457	0.1531337
2814	28.13	0.44152643	0.064401237	0.14526842	0.43870447	1.0295422	0.13972758	0.36262997	1.0315917	0.18231059	0.22053357	1.0366112	0.021433317	0.31708536	1.0394237	-0.15983035	0.41380304	1.0443954	-0.13377007	0.4400824	1.4594689	-0.00095145845	0.34988214	1.4814882	0.21037939	0.3188269	1.4916328	-0.17851195	0.4889292	1.3013839	-0.0095723391	0.44106256	1.4208365	-0.11817478	0.35345435	0.49348502	0.08863533	0.3448616	0.51900354	0.17766772	0.43933896	0.67910669	0.1542238	0.30666464	0.10585853	0.106217	0.28516644	0.10252433	0.19763869	0.31133847	0.37475287	0.21214355	0.20486848	0.061918713	0.15306367
2815	28.14	0.44156851	0.064358124	0.14525439	0.4405614	1.0293885	0.13938728	0.36455365	1.0312837	0.18199881	0.2224128	1.0356337	0.02108959	0.31877106	1.0387412	-0.16030966	0.41547919	1.043922	-0.13413333	0.43967212	1.4592145	-0.0015052941	0.34929074	1.4810614	0.20981477	0.31818005	1.4907343	-0.17901587	0.48913943	1.301306	-0.0099971085	0.44072787	1.4204153	-0.11870824	0.35326471	0.49350391	0.088520844	0.34492523	0.51903687	0.17749852	0.44028699	0.67884222	0.15371004	0.30673166	0.10582878	0.10612416	0.2851991	0.1025537	0.19754807	0.31124844	0.37484393	0.2121185	0.20491458	0.061970894	0.15299751
2816	28.15	0.44160724	0.064314034	0.14524489	0.44236011	1.0292242	0.13905602	0.36639557	1.0309662	0.18169574	0.22422136	1.0346543	0.020758581	0.32035498	1.0380485	-0.1607668	0.41709073	1.0434414	-0.13448273	0.4392818	1.4589246	-0.0020444021	0.34872913	1.4805791	0.20926015	0.31756723	1.4898228	-0.17950896	0.48935287	1.3011918	-0.010420049	0.4404086	1.4199728	-0.11922729	0.35307971	0.49351089	0.08842804	0.34502264	0.51906335	0.17735429	0.44121423	0.67858728	0.15322649	0.30679965	0.10580245	0.10603815	0.28523203	0.10257765	0.19746597	0.31118311	0.37493051	0.21209816	0.20496001	0.062019997	0.15293492
2817	28.16	0.44164261	0.0642696	0.14523856	0.44409344	1.0290505	0.13873833	0.36815164	1.0306404	0.18140666	0.22595142	1.0336816	0.020449057	0.32181439	1.0373533	-0.16119556	0.41862878	1.0429624	-0.13481648	0.43890955	1.4586095	-0.0025709987	0.34819867	1.4800515	0.20871591	0.31698782	1.4889106	-0.17999298	0.48956238	1.3010503	-0.010843232	0.44010422	1.4195195	-0.11973457	0.35290689	0.49350177	0.088350151	0.34515314	0.51907947	0.17723154	0.44212149	0.67833875	0.1527804	0.3068667	0.10577874	0.10595842	0.28526511	0.10259753	0.19739233	0.31114093	0.37501031	0.21207938	0.20500456	0.06206596	0.15287561
2818	28.17	0.44167499	0.064225471	0.14523392	0.44575623	1.0288698	0.13843697	0.36982343	1.030311	0.18113562	0.22759544	1.0327285	0.020169952	0.32312994	1.0366691	-0.16159016	0.42008408	1.0424967	-0.13513504	0.43855469	1.4582819	-0.0030876608	0.34769946	1.4794922	0.20818283	0.31644092	1.4880116	-0.18046873	0.48975995	1.300892	-0.011267196	0.43981461	1.4190676	-0.12023198	0.35276196	0.49347687	0.088280907	0.34531659	0.51908258	0.17712648	0.44300821	0.67809479	0.15237589	0.30693115	0.10575731	0.10588496	0.28529785	0.10261469	0.19732661	0.31112317	0.37508197	0.21206056	0.20504803	0.062108757	0.15281914
2819	28.18	0.4417048	0.064182251	0.1452296	0.44734445	1.0286849	0.13815184	0.37141763	1.0299849	0.18088515	0.22914769	1.0318115	0.019929663	0.32429227	1.0360139	-0.16194591	0.42144885	1.0420586	-0.13544067	0.43821762	1.4579559	-0.003596946	0.34723056	1.4789177	0.20766119	0.31592484	1.4871394	-0.18093597	0.48993863	1.3007296	-0.011690836	0.43953964	1.41863	-0.1207206	0.35266104	0.49343942	0.088215378	0.34551343	0.5190722	0.17703519	0.44387228	0.67785541	0.15201297	0.30699173	0.1057382	0.10581777	0.28533026	0.10263062	0.19726825	0.31113388	0.37514523	0.2120412	0.20509018	0.062148582	0.15276515
2820	28.19	0.44173264	0.06414045	0.14522484	0.44885443	1.0285009	0.13788029	0.37294467	1.0296709	0.18065675	0.23060507	1.03095	0.019734512	0.32531015	1.0354102	-0.16226027	0.42271786	1.0416648	-0.13573631	0.43789914	1.457647	-0.0041000252	0.34679077	1.4783467	0.20715079	0.31543713	1.4863096	-0.18139397	0.49009482	1.300578	-0.012111857	0.43927893	1.4182212	-0.12120045	0.35261481	0.49339438	0.088149818	0.34574405	0.51904974	0.17695349	0.44471136	0.67762341	0.15168842	0.30704828	0.10572162	0.10575622	0.28536316	0.10264699	0.19721657	0.31117859	0.37520078	0.21202095	0.20513066	0.062186157	0.15271341
2821	28.2	0.44175912	0.064100418	0.14521938	0.45028336	1.0283239	0.13761859	0.3744155	1.0293789	0.18045135	0.23196832	1.0301653	0.019586418	0.32621848	1.0348805	-0.16253261	0.42389053	1.0413301	-0.13602438	0.43759982	1.4573699	-0.0045958052	0.34637881	1.4777993	0.20665184	0.31497464	1.4855365	-0.18184097	0.49022849	1.3004519	-0.012527566	0.43903177	1.4178561	-0.12167072	0.35262689	0.49334702	0.088080856	0.34600778	0.51901886	0.17687721	0.44552289	0.6774032	0.15139746	0.30710141	0.10570794	0.10569892	0.28539783	0.10266574	0.19717085	0.31126166	0.37525073	0.21199887	0.20516928	0.06222324	0.15266345
2822	28.21	0.44178528	0.064062447	0.1452132	0.45162912	1.0281624	0.13736411	0.37583813	1.0291178	0.18026865	0.23324225	1.0294768	0.019481253	0.32708054	1.034444	-0.16276401	0.42497214	1.0410659	-0.13630573	0.43731973	1.4571387	-0.0050813346	0.34599341	1.4772963	0.20616632	0.31453314	1.4848333	-0.18227357	0.4903429	1.3003655	-0.012935312	0.43879828	1.4175487	-0.12212965	0.35269595	0.49330286	0.088005165	0.34630295	0.5189848	0.17680212	0.44630469	0.67720062	0.15113538	0.30715198	0.10569776	0.10564407	0.28543588	0.10268916	0.19713008	0.31138434	0.37529816	0.21197301	0.20520564	0.062262791	0.15261487
2823	28.22	0.44181186	0.064026688	0.14520677	0.45289047	1.0280247	0.13711723	0.37721506	1.0288961	0.18010672	0.23443414	1.0288984	0.019409708	0.327978	1.0341129	-0.16295685	0.42597458	1.0408793	-0.13657852	0.43705817	1.4569631	-0.0055524464	0.34563242	1.4768574	0.20569766	0.31410822	1.4842102	-0.18268738	0.49044409	1.300329	-0.01333226	0.43858005	1.4173101	-0.12257452	0.35281891	0.49326743	0.087919899	0.34662643	0.51895325	0.17672444	0.44705518	0.67702118	0.1508974	0.30720132	0.1056918	0.10558976	0.28547882	0.10271971	0.19709259	0.31154398	0.37534744	0.21194029	0.2052397	0.062308506	0.15256712
2824	28.23	0.44183966	0.06399321	0.14520084	0.4540665	1.0279181	0.13688147	0.37854105	1.0287192	0.17996199	0.23555209	1.028438	0.019359818	0.32898807	1.0338889	-0.16311511	0.42691519	1.0407712	-0.13683835	0.43681427	1.4568492	-0.0060039191	0.34529327	1.4764999	0.2052495	0.31369666	1.483674	-0.18307812	0.49054034	1.3003477	-0.013714568	0.43838062	1.4171465	-0.12300136	0.35299298	0.49324573	0.087823372	0.34697385	0.51893018	0.17664131	0.44777332	0.67687012	0.1506796	0.30725098	0.10569064	0.10553409	0.28552731	0.10275973	0.19705566	0.31173438	0.3754035	0.2118967	0.2052718	0.062363594	0.15251958
